<?xml version="1.0" encoding="utf-8"?>
<!-- Generator: Adobe Illustrator 21.0.2, SVG Export Plug-In . SVG Version: 6.00 Build 0)  -->
<svg version="1.1" id="Capa_1" xmlns="http://www.w3.org/2000/svg" xmlns:xlink="http://www.w3.org/1999/xlink" x="0px" y="0px"
	 viewBox="0 0 105 35" style="enable-background:new 0 0 105 35;" xml:space="preserve">
<style type="text/css">
	.st0{fill:#FFFFFF;}
</style>
<g>
	<path class="st0" d="M6.8,18.9c0,1.4,1,2.7,2.4,2.7c1.2,0,1.8-0.6,2.4-1.6l1.3,0.7c-0.8,1.4-2.2,2.2-3.8,2.2c-2.5,0-4-1.9-4-4.3
		c0-2.5,1.3-4.4,4-4.4c2.6,0,3.8,1.9,3.8,4.3v0.2H6.8z M11.4,17.7c-0.2-1.2-1-2-2.2-2c-1.2,0-2.1,0.9-2.3,2H11.4z"/>
	<path class="st0" d="M16.8,22.7h-1.6V7.6h1.6V22.7z"/>
	<path class="st0" d="M27.5,22.6c0,2.8-0.8,4.8-4,4.8c-2.3,0-3.9-1.4-3.9-3.7h1.6c0,1.5,1,2.3,2.4,2.3c1.9,0,2.3-1.3,2.3-3v-1.5h0
		c-0.6,0.9-1.6,1.5-2.8,1.5c-2.5,0-3.9-2.1-3.9-4.4c0-2.2,1.5-4.3,3.8-4.3c1.2,0,2.2,0.6,2.8,1.6h0v-1.4h1.6V22.6z M26,18.6
		c0-1.6-1-2.9-2.6-2.9c-1.6,0-2.6,1.4-2.6,2.9c0,1.5,0.9,3,2.6,3C25.1,21.6,26,20.2,26,18.6z"/>
	<path class="st0" d="M38,22.7h-1.6v-1.3h0c-0.6,0.9-1.6,1.5-2.8,1.5c-2.5,0-3.9-2.1-3.9-4.4c0-2.2,1.5-4.3,3.8-4.3
		c1.2,0,2.2,0.6,2.8,1.6h0v-1.4H38V22.7z M36.6,18.6c0-1.6-1-2.9-2.6-2.9c-1.6,0-2.6,1.4-2.6,2.9c0,1.5,0.9,3,2.6,3
		C35.6,21.6,36.6,20.2,36.6,18.6z"/>
	<path class="st0" d="M42.7,22.7h-1.6V16h-0.9v-1.5h0.9v-3.1h1.6v3.1h1.5V16h-1.5V22.7z"/>
	<path class="st0" d="M53.9,18.7c0,2.4-1.9,4.3-4.3,4.3c-2.4,0-4.3-1.9-4.3-4.3s1.9-4.3,4.3-4.3C52,14.3,53.9,16.2,53.9,18.7z
		 M46.8,18.7c0,1.5,1.2,2.8,2.8,2.8c1.5,0,2.8-1.3,2.8-2.8c0-1.5-1.2-2.8-2.8-2.8C48,15.8,46.8,17.1,46.8,18.7z"/>
	<path class="st0" d="M56.5,22.7v-6.4h-1.3v-2.1h1.3v-1.8c0-1,0.3-1.7,0.8-2.2c0.5-0.5,1.4-0.8,2.4-0.8c0.2,0,0.3,0,0.5,0
		s0.4,0.1,0.7,0.1v2.3c-0.1-0.1-0.3-0.1-0.4-0.1c-0.1,0-0.2,0-0.3,0c-0.3,0-0.5,0.1-0.6,0.3c-0.1,0.2-0.2,0.4-0.2,0.8v1.4H61v2.1
		h-1.5v6.4H56.5z"/>
	<path class="st0" d="M63.3,22.7V9.6h3v13.1H63.3z"/>
	<path class="st0" d="M78.7,14.1v8.6h-2.8v-1.4c-0.4,0.6-0.8,1-1.3,1.3c-0.5,0.3-1.1,0.4-1.7,0.4c-1.1,0-2.1-0.4-2.7-1.3s-1-2-1-3.4
		c0-1.4,0.4-2.5,1.1-3.3s1.7-1.2,2.9-1.2c0.6,0,1.2,0.1,1.7,0.4c0.5,0.3,0.9,0.7,1.2,1.3v-1.4H78.7z M76,18.4c0-0.7-0.2-1.2-0.5-1.6
		c-0.4-0.4-0.8-0.6-1.5-0.6s-1.1,0.2-1.5,0.6s-0.5,0.9-0.5,1.6c0,0.7,0.2,1.2,0.5,1.6c0.4,0.4,0.8,0.6,1.4,0.6
		c0.6,0,1.1-0.2,1.5-0.6C75.8,19.6,76,19.1,76,18.4z"/>
	<path class="st0" d="M88,17c-0.3-0.3-0.6-0.4-0.8-0.6c-0.3-0.1-0.6-0.2-0.9-0.2c-0.6,0-1.1,0.2-1.4,0.6c-0.4,0.4-0.5,0.9-0.5,1.6
		c0,0.7,0.2,1.2,0.6,1.6c0.4,0.4,0.9,0.6,1.5,0.6c0.3,0,0.6-0.1,0.9-0.2c0.3-0.1,0.5-0.3,0.8-0.6v2.6c-0.4,0.2-0.7,0.4-1.1,0.4
		C86.5,23,86.2,23,85.8,23c-1.3,0-2.4-0.4-3.2-1.3c-0.8-0.8-1.2-2-1.2-3.3c0-1.3,0.4-2.4,1.3-3.3s1.9-1.3,3.2-1.3
		c0.4,0,0.8,0,1.2,0.1s0.7,0.2,1,0.4V17z"/>
	<path class="st0" d="M99.8,18.5c0,0.6-0.1,1.2-0.4,1.8s-0.6,1.1-1,1.5c-0.5,0.4-1,0.8-1.6,1C96.2,22.9,95.6,23,95,23
		c-0.7,0-1.3-0.1-1.8-0.3c-0.6-0.2-1.1-0.6-1.5-1c-0.5-0.4-0.8-0.9-1-1.5s-0.4-1.1-0.4-1.8c0-0.6,0.1-1.2,0.4-1.8
		c0.2-0.6,0.6-1.1,1-1.5c0.4-0.4,1-0.8,1.5-1c0.6-0.2,1.2-0.3,1.9-0.3c0.7,0,1.3,0.1,1.8,0.3c0.6,0.2,1.1,0.5,1.5,1
		c0.5,0.4,0.8,0.9,1.1,1.5C99.7,17.2,99.8,17.8,99.8,18.5z M96.8,18.5c0-0.6-0.2-1.1-0.5-1.5c-0.3-0.4-0.8-0.6-1.3-0.6
		c-0.6,0-1,0.2-1.3,0.6c-0.3,0.4-0.5,0.9-0.5,1.5s0.2,1.1,0.5,1.5c0.3,0.4,0.8,0.5,1.3,0.5c0.6,0,1-0.2,1.3-0.5
		C96.6,19.6,96.8,19.1,96.8,18.5z"/>
</g>
</svg>
